{"title":"An American Werewolf in London =Full Moon Edition= [1981]","uid":7491114,"size":1477405930,"categoryP":"video","categoryS":"movies","magnet":"?xt=urn:btih:577bbd9a30e65e269edb655ffc0219e5be33be8b&amp;dn=An+American+Werewolf+in+London+%3DFull+Moon+Edition%3D+%5B1981%5D&amp;tr=udp%3A%2F%2Ftracker.openbittorrent.com%3A80&amp;tr=udp%3A%2F%2Fopen.demonii.com%3A1337&amp;tr=udp%3A%2F%2Ftracker.coppersurfer.tk%3A6969&amp;tr=udp%3A%2F%2Fexodus.desync.com%3A6969","seeders":0,"leechers":1,"uploader":"Carjacker","files":-1,"time":1343747654,"description":"******************************************************************************\n             An American Werewolf in London =Full Moon Edition= [1981]\n\nTwo American tourists in Britain are attacked by a werewolf that none of the locals will admit exists.\n\nDirector:\nJohn Landis\nWriter:\nJohn Landis\nStars:\nDavid Naughton, Jenny Agutter and Joe Belcher\n******************************************************************************\nFormat                                   : Matroska\nFormat version                           : Version 2\nFile size                                : 1.38 GiB\nDuration                                 : 1h 37mn\nOverall bit rate                         : 2 023 Kbps\n\nVideo\nFormat                                   : AVC\nFormat/Info                              : Advanced Video Codec\nFormat profile                           : &lt;a class=&quot;__cf_email__&quot; href=&quot;/cdn-cgi/l/email-protection&quot; data-cfemail=&quot;0840616f6048443b2638&quot;&gt;[email&amp;#160;protected]&lt;/a&gt;&lt;script cf-hash='f9e31' type=&quot;text/javascript&quot;&gt;\n/* &lt;![CDATA[ */!function(){try{var t=&quot;currentScript&quot;in document?document.currentScript:function(){for(var t=document.getElementsByTagName(&quot;script&quot;),e=t.length;e--;)if(t[e].getAttribute(&quot;cf-hash&quot;))return t[e]}();if(t&amp;&amp;t.previousSibling){var e,r,n,i,c=t.previousSibling,a=c.getAttribute(&quot;data-cfemail&quot;);if(a){for(e=&quot;&quot;,r=parseInt(a.substr(0,2),16),n=2;a.length-n;n+=2)i=parseInt(a.substr(n,2),16)^r,e+=String.fromCharCode(i);e=document.createTextNode(e),c.parentNode.replaceChild(e,c)}}}catch(u){}}();/* ]]&gt; */&lt;/script&gt;\nDuration                                 : 1h 37mn\nBit rate                                 : 1 534 Kbps\nWidth                                    : 720 pixels\nHeight                                   : 464 pixels\nDisplay aspect ratio                     : 1.85:1\nOriginal display aspect ratio            : 1.85:1\nFrame rate                               : 23.976 fps\nStream size                              : 1.04 GiB (76%)\nLanguage                                 : English\nDefault                                  : Yes\nForced                                   : No\n\nAudio\nFormat                                   : AC-3\nFormat/Info                              : Audio Coding 3\nDuration                                 : 1h 37mn\nBit rate mode                            : Constant\nBit rate                                 : 448 Kbps\nChannel(s)                               : 6 channels\nSampling rate                            : 48.0 KHz\nStream size                              : 312 MiB (22%)\nLanguage                                 : English\nDefault                                  : Yes\nForced                                   : No\n\n*****************************************************************************\nMovie MD5:  ED0A1E8D3D31B118D1E3782C329F9B36\n----------------------------------------------------------------------------\nMD5 Checker for Linux: &lt;a href=&quot; http://sinf.gr/en/hashcalc.html&quot; rel=&quot;nofollow&quot; target=&quot;_NEW&quot;&gt; http://sinf.gr/en/hashcalc.html&lt;/a&gt;\nMD5 Checker for Windows: &lt;a href=&quot; http://getmd5checker.com/&quot; rel=&quot;nofollow&quot; target=&quot;_NEW&quot;&gt; http://getmd5checker.com/&lt;/a&gt; \n----------------------------------------------------------------------------\n This was personally encoded by me, Carjacker, from the 'Full Moon Edition' DVD.\nLeave your thoughts/opinions and ratings on the A/V of this film for others to see. Thanks! \nPease SEED as you DL so others may also enjoy the movie! \n**Requests are welcome!\t\t","torrent":{"xt":"urn:btih:577bbd9a30e65e269edb655ffc0219e5be33be8b","amp;dn":"An+American+Werewolf+in+London+%3DFull+Moon+Edition%3D+%5B1981%5D","amp;tr":["udp%3A%2F%2Ftracker.openbittorrent.com%3A80","udp%3A%2F%2Fopen.demonii.com%3A1337","udp%3A%2F%2Ftracker.coppersurfer.tk%3A6969","udp%3A%2F%2Fexodus.desync.com%3A6969"],"infoHash":"577bbd9a30e65e269edb655ffc0219e5be33be8b","infoHashBuffer":{"type":"Buffer","data":[87,123,189,154,48,230,94,38,158,219,101,95,252,2,25,229,190,51,190,139]},"announce":[],"urlList":[]}}